<mxfile host="app.diagrams.net" modified="2023-09-28T06:51:17.873Z" agent="Mozilla/5.0 (Macintosh; Intel Mac OS X 10_15_7) AppleWebKit/537.36 (KHTML, like Gecko) Chrome/98.0.4758.102 Safari/537.36" version="21.8.2" etag="gz4JrXvu2NR4jxJHnAKu" type="github">
  <diagram name="第 1 页" id="aCCSgfYXeiknjtstPyjw">
    <mxGraphModel>
      <root>
        <mxCell id="0" />
        <mxCell id="1" parent="0" />
      </root>
    </mxGraphModel>
  </diagram>
</mxfile>
